<svg xmlns="http://www.w3.org/2000/svg" viewBox="0 0 103.95 35"><defs><style>.cls-1{fill:#ffffff;}</style></defs><title>Asset 3</title><g id="Layer_2" data-name="Layer 2"><g id="FINAL"><path class="cls-1" d="M21.92,11.48v7.25H19.48V11.34l-2.41,5.27c-.16.35-.32.67-.48,1a3.55,3.55,0,0,1-.52.75,2.08,2.08,0,0,1-.68.48,1.58,1.58,0,0,1-.38.12,2.77,2.77,0,0,1-.54.05,2,2,0,0,1-.79-.17l-.1,0a2.74,2.74,0,0,1-.72-.53,4.12,4.12,0,0,1-.58-.76,8.54,8.54,0,0,1-.46-.88L9.46,11.44v7.29H7V11.18a2.52,2.52,0,0,1,.71-1.77,2.46,2.46,0,0,1,.78-.53,2.52,2.52,0,0,1,1.88,0,2.75,2.75,0,0,1,.75.46,3.27,3.27,0,0,1,.6.69,4.64,4.64,0,0,1,.44.84l1.53,3.75.75,1.85L15,15.09l1.92-4.54a2.93,2.93,0,0,1,1-1.39,2.45,2.45,0,0,1,1.53-.48,2.28,2.28,0,0,1,1,.23,2.45,2.45,0,0,1,.79.62,2.83,2.83,0,0,1,.5.89A3.15,3.15,0,0,1,21.92,11.48Z"/><path class="cls-1" d="M36.49,9.68a3.49,3.49,0,0,0-1-.7,2.81,2.81,0,0,0-1.2-.27H26.86a4.08,4.08,0,0,0-1.32.22,3.86,3.86,0,0,0-1.14.61,3.06,3.06,0,0,0-.8.94,2.45,2.45,0,0,0-.3,1.2v3.8a3.28,3.28,0,0,0,.25,1.28,3.12,3.12,0,0,0,.67,1,3,3,0,0,0,1,.67,3.32,3.32,0,0,0,1.27.24h7.75a3.07,3.07,0,0,0,1.21-.24,3.45,3.45,0,0,0,1-.66,3.25,3.25,0,0,0,.71-1,2.68,2.68,0,0,0,.27-1.18V11.91a3,3,0,0,0-.26-1.21A3.34,3.34,0,0,0,36.49,9.68ZM34.8,16.16H25.89V11.31H34.8Z"/><path class="cls-1" d="M51.24,18.47a3.49,3.49,0,0,0,1.84-1.73,2.93,2.93,0,0,0,.29-1.29,1.86,1.86,0,0,0-.08-.55,2.73,2.73,0,0,0-.18-.46,3.25,3.25,0,0,0-.25-.41l-.28-.4a3.41,3.41,0,0,0,.57-1.88,3.2,3.2,0,0,0-.27-1.36,2.65,2.65,0,0,0-.75-1A3.24,3.24,0,0,0,51,8.86a5.29,5.29,0,0,0-1.46-.19H38.81V18.72H50A3.29,3.29,0,0,0,51.24,18.47Zm-9.76-7.24h9v1.13h-9Zm0,3.73h9v1.16h-9Z"/><path class="cls-1" d="M56.91,8.86a3.35,3.35,0,0,0-1.13.63,3,3,0,0,0-.76,1,3.19,3.19,0,0,0-.28,1.36v3.65A2.93,2.93,0,0,0,55,16.84a3.27,3.27,0,0,0,.78,1,3.62,3.62,0,0,0,1.13.67,3.78,3.78,0,0,0,1.34.24H68.85V16.09H57.3V15H68.85V12.4H57.3V11.23H68.85V8.64H58.31A4.35,4.35,0,0,0,56.91,8.86Z"/><path class="cls-1" d="M73.33,18.72h11V16.09H72.84V8.64H70.21v7a2.7,2.7,0,0,0,.27,1.17,3.46,3.46,0,0,0,.7,1,3.39,3.39,0,0,0,1,.68A2.77,2.77,0,0,0,73.33,18.72Z"/><rect class="cls-1" x="85.65" y="8.67" width="2.82" height="10.14"/><path class="cls-1" d="M90,18.72h3.35L96,15.56l.18-.22q.13-.15.26-.33l.25-.37a1.18,1.18,0,0,0,.16-.33,4.09,4.09,0,0,0,.47.69q.28.33.67.76l2.82,3H104l-4.36-5,4.29-5.06h-3.31l-2.64,3-.26.28q-.16.17-.33.37t-.3.41a1.18,1.18,0,0,0-.18.38l-.14-.28a1.63,1.63,0,0,0-.13-.2l-.19-.24L96.09,12,93.23,8.67H89.84l4.52,5Z"/><rect class="cls-1" x="13.52" y="23.65" width="0.18" height="1.63"/><path class="cls-1" d="M12,23.05a.82.82,0,0,0-.26-.21.76.76,0,0,0-.35-.08.82.82,0,0,0-.51.16,1,1,0,0,0-.32.47l-.84,2-.76-1.88a1.58,1.58,0,0,0-.15-.28,1.11,1.11,0,0,0-.2-.23.94.94,0,0,0-.25-.16.81.81,0,0,0-.3-.06.79.79,0,0,0-.32.07.81.81,0,0,0-.26.18.85.85,0,0,0-.24.59v2.53l.82,0V23.69l.79,1.73a2.86,2.86,0,0,0,.16.29,1.37,1.37,0,0,0,.19.25.94.94,0,0,0,.24.18.66.66,0,0,0,.3.07.76.76,0,0,0,.31-.06.7.7,0,0,0,.23-.16,1.18,1.18,0,0,0,.18-.25l.16-.32.81-1.77v2.47h.82V23.7a1.06,1.06,0,0,0-.06-.35A.94.94,0,0,0,12,23.05Z"/><path class="cls-1" d="M17.3,23.44a1.06,1.06,0,0,0-.24-.34,1.1,1.1,0,0,0-.34-.24,1,1,0,0,0-.4-.09H13.69a1.1,1.1,0,0,0-.3.06,1.19,1.19,0,0,0-.38.2.93.93,0,0,0-.27.31.81.81,0,0,0-.1.4V25a1.08,1.08,0,0,0,.08.43,1,1,0,0,0,.22.34,1,1,0,0,0,.34.23,1.16,1.16,0,0,0,.4.08h2.63a1,1,0,0,0,.4-.08,1.09,1.09,0,0,0,.35-.22,1,1,0,0,0,.24-.32.9.9,0,0,0,.09-.4V23.85A1.06,1.06,0,0,0,17.3,23.44Zm-.8,1.83h-3V23.65h3Z"/><path class="cls-1" d="M22.63,24.7l-.08-.14-.09-.13a1.14,1.14,0,0,0,.19-.63,1.08,1.08,0,0,0-.09-.46.89.89,0,0,0-.25-.32,1.08,1.08,0,0,0-.38-.19,1.77,1.77,0,0,0-.49-.06H17.85v3.37h3.74A1.1,1.1,0,0,0,22,26a1.17,1.17,0,0,0,.62-.58,1,1,0,0,0,.1-.43.63.63,0,0,0,0-.18A.94.94,0,0,0,22.63,24.7Zm-.88.56h-3v-.39h3Zm0-1.26h-3v-.38h3Z"/><rect class="cls-1" x="23.18" y="22.76" width="0.95" height="3.4"/><path class="cls-1" d="M25.46,22.75h-.88v2.34a.91.91,0,0,0,.09.39,1.17,1.17,0,0,0,.24.33,1.13,1.13,0,0,0,.33.23.93.93,0,0,0,.39.08H29.3v-.88H25.46Z"/><path class="cls-1" d="M30.48,22.83a1.14,1.14,0,0,0-.38.21,1,1,0,0,0-.26.34,1.07,1.07,0,0,0-.09.46v1.22a1,1,0,0,0,.1.44,1.11,1.11,0,0,0,.26.34,1.21,1.21,0,0,0,.38.22,1.27,1.27,0,0,0,.45.08h3.54v-.9H30.61v-.36h3.87V24H30.61v-.39h3.87v-.87H31A1.45,1.45,0,0,0,30.48,22.83Z"/><path class="cls-1" d="M42.75,24.34a1.16,1.16,0,0,0-.36-.23,1.21,1.21,0,0,0-.45-.08h-3.1v-.41h4v-.83H39.17a1.5,1.5,0,0,0-.46.07,1.32,1.32,0,0,0-.4.2,1.09,1.09,0,0,0-.29.33.86.86,0,0,0-.11.44.94.94,0,0,0,.1.42,1.06,1.06,0,0,0,.26.33,1.19,1.19,0,0,0,.37.22,1.23,1.23,0,0,0,.43.08h3.15v.4H38.12v.84h3.82a1.21,1.21,0,0,0,.79-.29,1.07,1.07,0,0,0,.25-.33.91.91,0,0,0,.1-.42,1,1,0,0,0-.09-.42A1.06,1.06,0,0,0,42.75,24.34Z"/><polygon class="cls-1" points="43.53 23.62 45.51 23.62 45.51 26.13 46.36 26.13 46.36 23.62 48.32 23.62 48.32 22.76 43.53 22.76 43.53 23.62"/><path class="cls-1" d="M53.2,23.1a1.17,1.17,0,0,0-.34-.24.94.94,0,0,0-.4-.09H50a1.36,1.36,0,0,0-.44.07,1.3,1.3,0,0,0-.38.2,1,1,0,0,0-.27.31.82.82,0,0,0-.1.4V25a1.1,1.1,0,0,0,.08.43,1,1,0,0,0,.23.34,1,1,0,0,0,.34.22,1.12,1.12,0,0,0,.42.08h2.6a1,1,0,0,0,.4-.08,1.16,1.16,0,0,0,.34-.22,1.1,1.1,0,0,0,.24-.32.9.9,0,0,0,.09-.39V23.85a1,1,0,0,0-.09-.41A1.12,1.12,0,0,0,53.2,23.1Zm-.57,2.17h-3V23.65h3Z"/><path class="cls-1" d="M58.5,24.41a1.14,1.14,0,0,0,.14-.28,1,1,0,0,0,0-.7,1.11,1.11,0,0,0-.55-.56.91.91,0,0,0-.39-.09H54v3.36h.89V24.87h3v1.26h.87V25a.82.82,0,0,0-.06-.29A1,1,0,0,0,58.5,24.41ZM57.85,24h-3v-.41h3Z"/><path class="cls-1" d="M59.91,22.83a1.14,1.14,0,0,0-.38.21,1,1,0,0,0-.26.34,1.06,1.06,0,0,0-.09.46v1.22a1,1,0,0,0,.1.44,1.1,1.1,0,0,0,.26.34,1.2,1.2,0,0,0,.38.22,1.27,1.27,0,0,0,.45.08h3.54v-.9H60v-.36h3.87V24H60v-.39h3.87v-.87H60.37A1.45,1.45,0,0,0,59.91,22.83Z"/><rect class="cls-1" x="67.33" y="22.48" width="0.66" height="3.88"/><path class="cls-1" d="M76.25,24.34a1.16,1.16,0,0,0-.36-.23,1.21,1.21,0,0,0-.45-.08h-3.1v-.41h4v-.83H72.68a1.5,1.5,0,0,0-.46.07,1.31,1.31,0,0,0-.4.2,1.09,1.09,0,0,0-.29.33.86.86,0,0,0-.11.44.94.94,0,0,0,.1.42,1.06,1.06,0,0,0,.26.33,1.19,1.19,0,0,0,.37.22,1.24,1.24,0,0,0,.43.08h3.15v.4H71.63v.84h3.82a1.21,1.21,0,0,0,.79-.29,1.06,1.06,0,0,0,.25-.33.91.91,0,0,0,.1-.42,1,1,0,0,0-.09-.42A1.06,1.06,0,0,0,76.25,24.34Z"/><path class="cls-1" d="M77.77,22.83a1.14,1.14,0,0,0-.38.21,1,1,0,0,0-.26.34,1.07,1.07,0,0,0-.09.46v1.22a1,1,0,0,0,.1.44,1.12,1.12,0,0,0,.26.34,1.22,1.22,0,0,0,.38.22,1.27,1.27,0,0,0,.45.08h3.54v-.9H77.9v-.36h3.87V24H77.9v-.39h3.87v-.87H78.24A1.46,1.46,0,0,0,77.77,22.83Z"/><path class="cls-1" d="M86.74,24.41a1.12,1.12,0,0,0,.14-.28,1,1,0,0,0,0-.31,1,1,0,0,0-.08-.4,1.12,1.12,0,0,0-.55-.56.92.92,0,0,0-.39-.09H82.23v3.36h.89V24.87h3v1.26H87V25a.8.8,0,0,0-.06-.29A.93.93,0,0,0,86.74,24.41ZM86.1,24h-3v-.41h3Z"/><path class="cls-1" d="M89.74,25.29l-1.34-2.51h-1l1.36,2.6a2.67,2.67,0,0,0,.18.31,1.42,1.42,0,0,0,.21.25.94.94,0,0,0,.26.17.81.81,0,0,0,.32.06.82.82,0,0,0,.29,0,.8.8,0,0,0,.23-.14,1.17,1.17,0,0,0,.19-.21,2.59,2.59,0,0,0,.17-.27l1.44-2.73h-1Z"/><rect class="cls-1" x="92.53" y="22.76" width="0.94" height="3.4"/><path class="cls-1" d="M94.27,23.07a1.21,1.21,0,0,0-.33.94v1.13a.84.84,0,0,0,.1.4,1.06,1.06,0,0,0,.25.31,1.14,1.14,0,0,0,.35.21,1.18,1.18,0,0,0,.41.07h3.69v-.84H94.81V23.61h3.92v-.84H95.21A1.36,1.36,0,0,0,94.27,23.07Z"/><path class="cls-1" d="M99.92,22.83a1.13,1.13,0,0,0-.38.21,1,1,0,0,0-.26.34,1.06,1.06,0,0,0-.09.46v1.22a1,1,0,0,0,.1.44,1.09,1.09,0,0,0,.26.34,1.2,1.2,0,0,0,.38.22,1.27,1.27,0,0,0,.45.08h3.54v-.9H100v-.36h3.87V24H100v-.39h3.87v-.87h-3.53A1.45,1.45,0,0,0,99.92,22.83Z"/><path class="cls-1" d="M15.94,27.68V32A1,1,0,0,1,15,33.05H2.89A1,1,0,0,1,1.95,32V3.07a1.1,1.1,0,0,1,.94-1.13H15a1.1,1.1,0,0,1,.94,1.13V7.56h1.95V1.21A1.16,1.16,0,0,0,16.77,0H1.11A1.16,1.16,0,0,0,0,1.21V33.79A1.16,1.16,0,0,0,1.11,35H16.77a1.16,1.16,0,0,0,1.11-1.21V27.69H15.94ZM6.77.68h4.35a.28.28,0,0,1,0,.56H6.77a.28.28,0,0,1,0-.56Z"/></g></g></svg>